<?xml version="1.0" encoding="UTF-8"?>
<svg width="512pt" height="512pt" version="1.1" viewBox="0 0 512 512" xmlns="http://www.w3.org/2000/svg">
 <path d="m485.98 265.92c-0.51562-0.80859-38.027-58.684-101.79-91.121-17.172-27.598-58.453-69.508-150.95-69.508-1.1016 0-2.0977 0.66406-2.5234 1.6797-0.41797 1.0234-0.1875 2.1953 0.59375 2.9805 16.23 16.23 26.535 32.496 33.125 46.621-39.582 7.3438-79.426 27.418-119.15 60.223-1.207-1.7266-2.4727-3.4453-3.8047-5.1602-18.652-23.977-53.539-50.047-113.68-37.992-0.77344 0.14844-1.4336 0.62891-1.832 1.3047-0.39453 0.67578-0.47266 1.4961-0.21875 2.2383 0.91797 2.7461 22.293 65.34 65.406 90.203-43.121 24.863-64.496 87.453-65.414 90.203-0.25 0.73828-0.16797 1.5547 0.21875 2.2305 0.39844 0.67578 1.0586 1.1562 1.832 1.3125 10.465 2.0938 20.164 3.0312 29.145 3.0312 42.664 0 69.125-21.223 84.531-41.027 1.332-1.7148 2.5977-3.4297 3.8047-5.1562 35.895 29.629 71.887 48.859 107.68 57.723-5.707 8.5664-12.758 17.453-21.652 26.348-0.78516 0.78516-1.0156 1.957-0.59375 2.9805 0.42578 1.0156 1.4219 1.6797 2.5234 1.6797 28.414 0 52.961-11.719 72.137-25.504 110.62-4.5273 179.91-111.25 180.6-112.36 0.57422-0.89062 0.57422-2.0352 0.007812-2.9297zm-100.72 72.012c-19.25-13.609-31.883-36.066-31.883-61.441s12.633-47.832 31.883-61.441c-8.2344 17.496-13.07 38.645-13.07 61.441s4.8398 43.945 13.07 61.441zm32.387-65.996c-8.7969 0-15.938-7.1406-15.938-15.934s7.1406-15.934 15.938-15.934 15.938 7.1406 15.938 15.934-7.1406 15.934-15.938 15.934z" fill="#fff"/>
</svg>
