<?xml version="1.0" encoding="UTF-8"?>
<svg width="512pt" height="512pt" version="1.1" viewBox="0 0 512 512" xmlns="http://www.w3.org/2000/svg">
 <path d="m188.55 466.2 58.898-174.7h-147.55l223.55-245.7-58.898 174.7h147.55z" fill="#fff"/>
 <path d="m198.2 469.1c1.9492-5.8008 3.8984-11.551 5.8516-17.352 4.6992-13.898 9.3516-27.75 14.051-41.648 5.6992-16.898 11.398-33.75 17.102-50.648 4.8984-14.551 9.8008-29.051 14.699-43.602 2.3984-7.0508 5.0508-14.051 7.1484-21.199 0.050781-0.10156 0.050781-0.19922 0.10156-0.30078 2.1016-6.25-3.4492-12.648-9.6484-12.648h-49.949-79.5-18.102c2.3516 5.6992 4.6992 11.398 7.0508 17.051 7.4492-8.1484 14.852-16.352 22.301-24.5 17.852-19.602 35.699-39.25 53.551-58.852 21.449-23.602 42.949-47.199 64.398-70.75 18.648-20.5 37.25-40.949 55.898-61.449 9-9.8516 18.398-19.5 27-29.699 0.10156-0.14844 0.25-0.30078 0.39844-0.39844-5.5508-3.25-11.148-6.5-16.699-9.75-1.9492 5.8008-3.8984 11.551-5.8516 17.352-4.6992 13.898-9.3516 27.75-14.051 41.648-5.6992 16.898-11.398 33.75-17.102 50.648-4.8984 14.551-9.8008 29.051-14.699 43.602-2.3984 7.0508-5.0508 14.051-7.1484 21.199-0.050781 0.10156-0.050781 0.19922-0.10156 0.30078-2.1016 6.25 3.4492 12.648 9.6484 12.648h49.949 79.5 18.102c-2.3516-5.6992-4.6992-11.398-7.0508-17.051-7.4492 8.1484-14.852 16.352-22.301 24.5-17.852 19.602-35.699 39.25-53.551 58.852-21.449 23.602-42.949 47.199-64.398 70.75-18.648 20.5-37.25 40.949-55.898 61.449-9 9.8984-18.148 19.648-27 29.699-0.14844 0.14844-0.25 0.30078-0.39844 0.39844-3.5 3.8516-4.1016 10.352 0 14.148 3.8516 3.5 10.398 4.1484 14.148 0 7.4492-8.1484 14.852-16.352 22.301-24.5 17.852-19.602 35.699-39.25 53.551-58.852 21.449-23.602 42.949-47.199 64.398-70.75 18.648-20.5 37.25-40.949 55.898-61.449 9-9.8984 18.199-19.648 27-29.699 0.10156-0.14844 0.25-0.30078 0.39844-0.39844 5.6992-6.3008 1.8984-17.051-7.0508-17.051h-49.949-79.5-18.102c3.1992 4.1992 6.4492 8.4492 9.6484 12.648 1.9492-5.8008 3.8984-11.551 5.8516-17.352 4.6992-13.898 9.3516-27.75 14.051-41.648 5.6992-16.898 11.398-33.75 17.102-50.648 4.8984-14.551 9.8008-29.051 14.699-43.602 2.3516-7.0508 5.1992-14.051 7.1484-21.199 0.050781-0.10156 0.050781-0.19922 0.10156-0.30078 3.1992-9.3984-10.102-17-16.699-9.75-7.4492 8.1484-14.852 16.352-22.301 24.5-17.852 19.602-35.699 39.25-53.551 58.852-21.449 23.602-42.949 47.199-64.398 70.75-18.648 20.5-37.25 40.949-55.898 61.449-9 9.8984-18.199 19.648-27 29.699-0.10156 0.14844-0.25 0.30078-0.39844 0.39844-5.6992 6.3008-1.8984 17.051 7.0508 17.051h49.949 79.5 18.102c-3.1992-4.1992-6.4492-8.4492-9.6484-12.648-1.9492 5.8008-3.8984 11.551-5.8516 17.352-4.6992 13.898-9.3516 27.75-14.051 41.648-5.6992 16.898-11.398 33.75-17.102 50.648-4.8984 14.551-9.8008 29.051-14.699 43.602-2.3984 7.0508-5.0508 14.051-7.1484 21.199-0.050781 0.10156-0.050781 0.19922-0.10156 0.30078-1.6484 4.9492 1.8984 11.148 7 12.301 5.4492 1.3008 10.449-1.6523 12.25-6.9492z" fill="#fff"/>
</svg>
