<?xml version="1.0" encoding="UTF-8"?>
<svg width="512pt" height="512pt" version="1.1" viewBox="0 0 512 512" xmlns="http://www.w3.org/2000/svg">
 <path d="m386.56 382.46c-15.879 0-27.141-4.1016-27.641-9.7188-1.0195-0.51953-5.6406-2.0391-13.32-2.0391-7.6797 0-12.281 1.5391-13.32 2.0391-0.51953 5.6406-11.781 9.7188-27.641 9.7188-15.879 0-27.141-4.1016-27.641-9.7188-1.0195-0.51953-5.6406-2.0391-13.32-2.0391-7.6797 0-12.281 1.5391-13.32 2.0391-0.51953 5.6406-11.781 9.7188-27.641 9.7188-15.879 0-27.141-4.1016-27.641-9.7188-1.0195-0.51953-5.6406-2.0391-13.32-2.0391-7.6797 0-12.281 1.5391-13.32 2.0391-0.51953 5.6406-11.781 9.7188-27.641 9.7188-15.879 0-27.141-4.1016-27.641-9.7188-1.0195-0.51953-5.6406-2.0391-13.32-2.0391-7.6797 0-12.281 1.5391-13.32 2.0391-0.51953 2.0391-3.5781 4.1016-7.1602 4.1016-4.1016 0-7.1602-2.0391-7.1602-4.1016 0-6.1406 11.781-10.238 27.641-10.238 15.879 0 27.141 4.1016 27.641 9.7188 1.0195 0.51953 5.6406 2.0391 13.32 2.0391 7.6797 0 12.281-1.5391 13.32-2.0391 0.51953-5.6406 11.781-9.7188 27.641-9.7188 15.879 0 27.141 4.1016 27.641 9.7188 1.0195 0.51953 5.6406 2.0391 13.32 2.0391 7.6797 0 12.281-1.5391 13.32-2.0391 0.51953-5.6406 11.781-9.7188 27.641-9.7188 15.879 0 27.141 4.1016 27.641 9.7188 1.0195 0.51953 5.6406 2.0391 13.32 2.0391 7.6797 0 12.281-1.5391 13.32-2.0391 0.51953-5.6406 11.781-9.7188 27.641-9.7188 15.879 0 27.141 4.1016 27.641 9.7188 1.0195 0.51953 5.6406 2.0391 13.32 2.0391 7.6797 0 12.281-1.5391 13.32-2.0391 0.51953-2.0391 3.5781-4.1016 7.1602-4.1016 4.1016 0 7.1602 2.0391 7.1602 4.1016 0 5.6406-11.262 10.238-27.641 10.238z" fill="#fff"/>
 <path d="m101.88 349.7c15.879 0 27.141 4.1016 27.641 9.7188 0 0 0.51953 0.51953 1.5391 0.51953h24.059c0.51953 0 1.0195-0.51953 1.5391-0.51953 0.51953-5.6406 11.781-9.7188 27.641-9.7188 15.879 0 27.141 4.1016 27.641 9.7188 0 0 0.51953 0.51953 1.5391 0.51953h24.059c0.51953 0 1.0195-0.51953 1.5391-0.51953 0.51953-5.6406 11.781-9.7188 27.641-9.7188 15.879 0 27.141 4.1016 27.641 9.7188 0 0 0.51953 0.51953 1.5391 0.51953h22.559c0.51953 0 1.0195-0.51953 1.5391-0.51953 0.51953-5.6406 11.781-9.7188 27.641-9.7188 15.879 0 27.141 4.1016 27.641 9.7188 0 0 0.51953 0.51953 1.5391 0.51953h24.059c0.51953 0 1.0195-0.51953 1.5391-0.51953 0.51953-2.0391 3.5781-4.1016 7.1602-4.1016 1.0195 0 2.0391 0 3.0781 0.51953l53.258-108.54h-158.72v15.359h-261.12v24.059l29.18 69.641c3.5781-4.1016 13.32-6.6602 26.621-6.6602z" fill="#fff"/>
 <path d="m306.68 180.74h117.76v61.441h-117.76z" fill="#fff"/>
 <path d="m245.76 129.54h56.32v61.441h-56.32z" fill="#fff"/>
 <path d="m184.32 155.14h56.32v35.84h-56.32z" fill="#fff"/>
 <path d="m71.68 146.44h-25.602v15.359h20.48v97.281h76.801v-112.64zm56.32 71.68h-20.48v-20.48h20.48zm0-35.84h-20.48v-20.48h20.48z" fill="#fff"/>
 <path d="m148.48 196.1v62.98h153.6v-62.98zm35.84 40.961c-5.6406 0-10.238-4.6016-10.238-10.238 0-5.6406 4.6016-10.238 10.238-10.238 5.6406 0 10.238 4.6016 10.238 10.238 0 5.6211-4.6016 10.238-10.238 10.238zm40.961 0c-5.6406 0-10.238-4.6016-10.238-10.238 0-5.6406 4.6016-10.238 10.238-10.238 5.6406 0 10.238 4.6016 10.238 10.238 0 5.6211-4.6016 10.238-10.238 10.238zm40.961 0c-5.6406 0-10.238-4.6016-10.238-10.238 0-5.6406 4.6016-10.238 10.238-10.238 5.6406 0 10.238 4.6016 10.238 10.238 0 5.6211-4.6016 10.238-10.238 10.238z" fill="#fff"/>
</svg>
