<?xml version="1.0" encoding="UTF-8"?>
<svg width="128pt" height="128pt" version="1.1" viewBox="0 0 128 128" xmlns="http://www.w3.org/2000/svg">
 <path d="m17.559 19.836h21.934l2.7266-7.8164c1.2188-3.5 4.4219-5.7734 8.1133-5.7734h27.336c3.6953 0 6.8945 2.2734 8.1133 5.7734l2.7266 7.8164h21.93c2.8359 0 5.1719 2.3359 5.1719 5.1719v9.8008c0 2.8359-2.3359 5.1719-5.1719 5.1719h-2.1719l-7.1406 71.266c-0.60156 5.9805-5.6133 10.516-11.609 10.516h-51.039c-5.9961 0-11.012-4.5352-11.609-10.516l-7.1406-71.266c-2.3281 0-3.9805 0.25391-5.8242-1.5234-0.93359-0.94141-1.5156-2.2305-1.5156-3.6445v-9.8008c0-2.8359 2.3359-5.1719 5.1719-5.1719zm34.754 30.934-4.8945 0.28906 3.0703 49.164 4.8945-0.28906zm28.266 0.28516-4.8945-0.28906-3.0703 49.164 4.8945 0.28906zm-35.895-31.219h38.637l-2.1602-6.1992c-0.53125-1.5312-1.8594-2.4688-3.4883-2.4688l-27.336-0.003907c-1.6289 0-2.9531 0.94531-3.4883 2.4688zm58.66 20.141h-78.691l7.0898 70.785c0.35156 3.4766 3.2188 6.0781 6.7305 6.0781h51.047c3.5117 0 6.3867-2.6016 6.7305-6.0781zm7.0938-15.227-93.066 0.074219 0.011718 10.164 93.246-0.011719-0.011718-10.164c-0.046876-0.039062-0.10547-0.066406-0.17969-0.066406z" fill="#fff" fill-rule="evenodd"/>
</svg>
