<?xml version="1.0" encoding="UTF-8"?>
<svg width="512pt" height="512pt" version="1.1" viewBox="0 0 512 512" xmlns="http://www.w3.org/2000/svg">
 <path d="m409.86 227.07c-2.8633-3.1133-6.7539-5.0938-10.957-5.5781l2.6641-13.926c0.76172-3.2852 0.15234-6.7344-1.6836-9.5586-1.8398-2.8242-4.7461-4.7773-8.0547-5.4102-3.3086-0.63672-6.7344 0.10547-9.4844 2.0508-2.7539 1.9453-4.5938 4.9258-5.0977 8.2578l-3.9922 20.789c-10.238 1.4844-20.48 2.9688-31.18 4.25l-0.003906-0.003906c-0.97266 0.30078-2.0312 0.13672-2.8711-0.44141-0.83594-0.57812-1.3633-1.5117-1.4297-2.5273-1.0742-4.5586-2.457-9.0117-3.7383-13.516-3.9102-15.695-8.9219-31.094-15-46.082-6.832-13.324-17.543-24.27-30.719-31.383-12.02-7-25.945-10.012-39.785-8.6016-31.898 3.8398-44.75 31.641-50.688 59.801-5.1211 23.809-10.805 47.055-17.152 70.504-5.1211 18.738-6.9102 39.426 3.4805 56.832 12.188 20.48 33.844 33.125 54.887 42.395 11.621 5.1211 23.758 11.98 28.93 23.602 4.4023 10.238 2.7656 21.453 1.125 32.258-2.2852 14.539-4.5586 29.098-6.8086 43.672-2.0547 8.9961-2.0547 18.34 0 27.34 1.0156 4.4727 3.4375 8.5 6.9141 11.496 3.4727 2.9961 7.8164 4.7969 12.391 5.1445 5.7852-0.45312 11.105-3.3359 14.641-7.9375 3.4922-4.6602 6.2227-9.8438 8.0898-15.359 5.3359-13.742 9.582-27.883 12.699-42.293 4.1992-19.098 8.8594-39.27 8.293-59.238-0.66406-23.039-9.0117-38.348-25.293-53.605-13.672-12.801-24.781-29.746-25.09-49.102h0.003906c0.47656-12.969 3.0352-25.781 7.5781-37.938 0.76953-1.8555 2.5508-3.0898 4.5586-3.1562 2.0078-0.066407 3.8672 1.0469 4.7578 2.8477 0 0 11.57 33.074 20.02 37.531 12.75 6.7578 27.137 0.71875 39.477-3.5859 4.8633-1.7422 9.7266-3.3281 14.645-5.1211l-42.602 223.03c-0.62891 3.2266 0.054688 6.5703 1.8984 9.293 1.8477 2.7188 4.7031 4.5898 7.9336 5.1992 0.76562 0.074218 1.5352 0.074218 2.3008 0 5.9883-0.035156 11.098-4.3438 12.137-10.242l45.16-235.78 5.1211-1.6367h-0.003907c4.2031-0.91016 8.1758-2.6719 11.676-5.1719 5.3086-5.2148 5.4219-13.738 0.25391-19.098z" fill="#fff"/>
 <path d="m183.6 346.16c-27.137 39.371-55.348 78.133-82.227 117.76-7.3711 10.906-1.125 33.793 14.438 33.637 13.465 0 22.629-10.547 31.539-19.25 10.238-9.832 19.711-20.121 28.93-30.719v-0.003906c18.27-21.094 34.664-43.742 49-67.688 1.4141-2.1797 2.6484-4.4727 3.6836-6.8594-16.301-6.8281-31.383-16.273-44.645-27.953z" fill="#fff"/>
 <path d="m311.6 110.85c13.637 1.1914 27.145-3.3906 37.246-12.625 10.098-9.2344 15.867-22.277 15.902-35.965 0.097656-17.523-9.1562-33.77-24.281-42.617s-33.824-8.957-49.051-0.28125c-15.227 8.6758-24.668 24.812-24.77 42.336-0.12891 12.363 4.4414 24.316 12.785 33.441 8.3477 9.125 19.844 14.738 32.168 15.711z" fill="#fff"/>
 <path d="m156.88 277.04c0.58203-8.9453 2.1289-17.805 4.6094-26.418 6.7578-25.035 12.289-47.719 16.844-69.375v-0.003906c2.7344-15.727 8.3945-30.801 16.691-44.441-15.359-1.3828-51.508 3.3281-72.344 70.656-19.355 62.672 13.926 70.301 34.199 69.582z" fill="#fff"/>
</svg>
