<?xml version="1.0" encoding="UTF-8"?>
<svg width="128pt" height="128pt" version="1.1" viewBox="0 0 128 128" xmlns="http://www.w3.org/2000/svg">
 <path d="m26.637 110.4c-0.011719 3.8242 1.4961 7.4961 4.1914 10.207 2.6953 2.7148 6.3633 4.2383 10.188 4.2461 3.8203 0.007813 7.4922-1.5078 10.195-4.2109l45.941-45.992c2.7148-2.7148 4.2305-6.3984 4.2109-10.238v-0.47266c0.14062-3.9805-1.3828-7.8398-4.1992-10.652l-45.965-45.875c-3.6641-3.4844-8.8945-4.793-13.77-3.4414s-8.6836 5.1641-10.031 10.039c-1.3477 4.8789-0.039063 10.105 3.4492 13.77l36.223 36.223-36.223 36.223c-2.6992 2.6992-4.2148 6.3594-4.2109 10.176z" fill="#fff"/>
</svg>
