<?xml version="1.0" encoding="UTF-8"?>
<svg width="128pt" height="128pt" version="1.1" viewBox="0 0 128 128" xmlns="http://www.w3.org/2000/svg">
 <path d="m60 7.125c33.113 0 60 26.887 60 60s-26.887 60-60 60-60-26.887-60-60 26.887-60 60-60zm0 8c-28.699 0-52 23.301-52 52s23.301 52 52 52 52-23.301 52-52-23.301-52-52-52zm4 50.344 20.086 20.086c1.5664 1.5586 1.5664 4.0938 0 5.6562-1.5586 1.5664-4.0938 1.5664-5.6562 0l-20.086-20.086c-1.5-1.5-2.3438-3.5352-2.3438-5.6562v-34.344c0-2.2031 1.7891-4 4-4s4 1.7969 4 4z" fill="#fff" fill-rule="evenodd"/>
</svg>
