<?xml version="1.0" encoding="UTF-8"?>
<svg id="Layer_1" xmlns="http://www.w3.org/2000/svg" version="1.1" viewBox="0 0 128 128">
  <!-- Generator: Adobe Illustrator 29.8.2, SVG Export Plug-In . SVG Version: 2.1.1 Build 3)  -->
  <defs>
    <style>
      .st0 {
        fill: #fff;
      }
    </style>
  </defs>
  <path class="st0" d="M101.37,110.4c.01,3.82-1.5,7.5-4.19,10.21-2.7,2.71-6.36,4.24-10.19,4.25-3.82,0-7.49-1.51-10.19-4.21l-45.94-45.99c-2.71-2.71-4.23-6.4-4.21-10.24v-.47c-.14-3.98,1.38-7.84,4.2-10.65L76.81,7.41c3.66-3.48,8.89-4.79,13.77-3.44s8.68,5.16,10.03,10.04c1.35,4.88.04,10.1-3.45,13.77l-36.22,36.22,36.22,36.22c2.7,2.7,4.21,6.36,4.21,10.18h0Z"/>
</svg>