<?xml version="1.0" encoding="UTF-8"?>
<svg width="128pt" height="128pt" version="1.1" viewBox="0 0 128 128" xmlns="http://www.w3.org/2000/svg">
 <path d="m69.246 103.81c-4.4805 1.5352-9.0898 2.3047-13.953 2.3047-23.297 0-42.238-18.945-42.238-42.113 0-23.297 18.945-42.238 42.238-42.238 17.281 0 32.641 10.367 39.039 26.367 1.0234 2.5586 3.9688 3.7109 6.3984 2.6875 2.5586-1.0234 3.7109-3.9688 2.6875-6.3984-7.8008-19.715-26.746-32.516-48.121-32.516-28.672 0-52.098 23.426-52.098 52.098s23.426 52.098 52.098 52.098c5.8867 0 11.648-1.0234 17.152-2.9453 2.5586-0.89453 3.9688-3.7109 3.0703-6.2734-0.89453-2.5586-3.7109-3.9688-6.2734-3.0703z" fill="#fff"/>
 <path d="m50.305 36.609v23.68l-13.312 3.9688c-2.5586 0.76953-4.0977 3.5859-3.3281 6.1445 0.64063 2.1758 2.5586 3.5859 4.7344 3.5859 0.51172 0 0.89453-0.12891 1.4062-0.25781l16.895-5.1211c2.0469-0.64062 3.5859-2.5586 3.5859-4.7344l0.003906-27.266c0-2.6875-2.1758-4.9922-4.9922-4.9922-2.6875 0-4.9922 2.3047-4.9922 4.9922z" fill="#fff"/>
 <path d="m119.55 100.22c-0.51172-0.51172-1.4062-0.51172-1.9219 0-2.5586 2.5586-5.7617 3.8398-8.9609 3.8398-4.6094 0-9.0898-2.8164-11.777-7.4258h12.16c0.76953 0 1.4062-0.64062 1.4062-1.4062v-4.2227c0-0.76953-0.64062-1.4062-1.4062-1.4062h-14.457c-0.12891-0.76953-0.12891-1.5352-0.12891-2.3047s0-1.4062 0.12891-2.3047h14.465c0.76953 0 1.4062-0.64063 1.4062-1.4062v-4.2266c0-0.76953-0.64062-1.4062-1.4062-1.4062h-12.16c2.5586-4.6094 7.0391-7.4258 11.777-7.4258 3.1992 0 6.3984 1.4062 8.9609 3.9688 0.51172 0.51172 1.4062 0.51172 1.9219 0l4.7344-4.3516c0.25781-0.25781 0.51172-0.64062 0.51172-1.0234 0-0.38281-0.12891-0.76953-0.38281-1.0234-4.3516-4.3516-9.9844-6.7852-15.742-6.7852-9.6016 0-18.305 6.6562-21.762 16.77h-5.1211c-0.76953 0-1.4062 0.64062-1.4062 1.4062v4.2227c0 0.76953 0.64062 1.4062 1.4062 1.4062h3.5859c-0.12891 0.76953-0.12891 1.5352-0.12891 2.3047s0 1.5352 0.12891 2.3047h-3.5859c-0.76953 0-1.4062 0.64063-1.4062 1.4062v4.2227c0 0.76953 0.64062 1.4062 1.4062 1.4062h5.1211c3.457 9.9844 12.16 16.77 21.762 16.77 5.8867 0 11.391-2.4336 15.742-6.7852 0.25781-0.25781 0.38281-0.64062 0.38281-1.0234 0-0.38281-0.12891-0.76953-0.51172-1.0234z" fill="#fff"/>
</svg>
