<?xml version="1.0" encoding="UTF-8"?>
<svg width="128pt" height="128pt" version="1.1" viewBox="0 0 128 128" xmlns="http://www.w3.org/2000/svg">
 <path d="m36 25c-2.7617 0-5 2.2383-5 5v53c0 2.7617 2.2383 5 5 5h21.992l17.574-30.441c2.4844-4.3047 7.9883-5.7812 12.297-3.2969 4.3047 2.4844 5.7812 7.9883 3.2891 12.297l-12.375 21.441h13.227c2.7617 0 5-2.2383 5-5v-53c0-2.7617-2.2383-5-5-5zm39.309 69h16.691c6.0742 0 11-4.9258 11-11v-53c0-6.0742-4.9258-11-11-11h-56c-6.0742 0-11 4.9258-11 11v53c0 6.0742 4.9258 11 11 11h18.527l-2.9961 5.1836c-0.51562 0.89453-0.66406 1.9492-0.42188 2.9531l1.7305 7.0117c0.53906 2.2109 2.8164 3.5195 4.9961 2.8867l6.9336-2.0117c0.98828-0.28516 1.8359-0.94531 2.3516-1.8398zm-33.309-55c0-1.6562 1.3438-3 3-3h37c1.6562 0 3 1.3438 3 3s-1.3438 3-3 3h-37c-1.6562 0-3-1.3438-3-3zm0 17c0-1.6562 1.3438-3 3-3h20c1.6562 0 3 1.3438 3 3s-1.3438 3-3 3h-20c-1.6562 0-3-1.3438-3-3zm3 15c-1.6562 0-3 1.3438-3 3s1.3438 3 3 3h12c1.6562 0 3-1.3438 3-3s-1.3438-3-3-3zm39.859-11.539c1.4336 0.82812 1.9258 2.6641 1.0938 4.1016l-23.629 40.926-4.1602 1.2109-1.0352-4.2109 23.629-40.926c0.82813-1.4336 2.6641-1.9258 4.1016-1.1016z" fill="#fff" fill-rule="evenodd"/>
</svg>
