<?xml version="1.0" encoding="UTF-8"?>
<svg width="128pt" height="128pt" version="1.1" viewBox="0 0 128 128" xmlns="http://www.w3.org/2000/svg">
 <path d="m64.004 28.324c-3.3789 0-6.6719-1.3711-9.0508-3.75-2.3789-2.3789-3.75-5.6836-3.75-9.0508 0-0.84375 0.074219-1.6758 0.23828-2.5117 0.16406-0.82031 0.41016-1.625 0.73047-2.3945 0.32031-0.76953 0.71484-1.5117 1.1758-2.2148 0.47656-0.69141 1.0117-1.3438 1.6016-1.9453 2.3789-2.3789 5.6719-3.7344 9.0508-3.7344 3.3633 0 6.6719 1.3555 9.0508 3.7344 0.58984 0.60156 1.1289 1.2539 1.5859 1.9453 0.46094 0.70312 0.85547 1.4453 1.1758 2.2148 0.32031 0.76953 0.56641 1.5742 0.73047 2.3945 0.16406 0.82812 0.25391 1.6641 0.25391 2.5117 0 3.3633-1.3711 6.6719-3.75 9.0508-2.3789 2.3789-5.6797 3.75-9.0508 3.75z" fill="#fff"/>
 <path d="m64 124.84c-7.0703 0-12.801-5.7305-12.801-12.801v-58.48c0-7.0703 5.7305-12.801 12.801-12.801s12.801 5.7305 12.801 12.801v58.48c0 7.0703-5.7305 12.801-12.801 12.801z" fill="#fff"/>
</svg>
