<?xml version="1.0" encoding="UTF-8"?>
<svg width="128pt" height="128pt" version="1.1" viewBox="0 0 128 128" xmlns="http://www.w3.org/2000/svg">
 <path d="m104.14 48.141c-3.8203-62.441-95.109-46.234-78.094 13.395 1.2812 3.7383 6.8438 1.9414 5.7148-1.8281-7.8516-21.859 8.9492-46.035 32.246-45.703 18.824 0 34.141 15.316 34.141 34.141 0 25.285-27.176 45.531-34.121 50.289-4.6914-3.2734-18.629-13.734-27.148-27.805-2.0898-3.3359-7.125-0.29688-5.1289 3.1094 11.055 18.25 29.859 30.328 30.656 30.84 0.96875 0.61328 2.2109 0.625 3.1914 0.019531 1.5742-0.97656 38.559-24.25 38.559-56.449z" fill="#fff"/>
 <path d="m56.195 114c-3.9414 0.066406-3.9453 5.9336 0 6h15.613c3.9414-0.066406 3.9453-5.9336 0-6z" fill="#fff"/>
 <path d="m80.809 56.668c4.5234 0.98828 4.4961-5.2461 4.6719-8.2695-1.1758-28.496-41.785-28.492-42.961 0-0.21875 17.055 19.801 27.559 33.684 17.664 3.2031-2.3047-0.12891-7.1211-3.4102-4.9336-2.6016 1.8008-5.6406 2.75-8.7969 2.75-8.5352 0-15.48-6.9453-15.48-15.48 0.83594-20.531 30.129-20.523 30.961 0 0.30859 2.8398-2.5469 6.9219 1.3281 8.2695z" fill="#fff"/>
</svg>
