<?xml version="1.0" encoding="UTF-8"?>
<svg width="128pt" height="128pt" version="1.1" viewBox="0 0 128 128" xmlns="http://www.w3.org/2000/svg">
 <path d="m37.18 37.41c-16.371 0-29.641 13.27-29.641 29.641 0 16.367 13.27 29.641 29.641 29.641 16.371 0 29.641-13.27 29.641-29.641 0-16.371-13.273-29.641-29.641-29.641zm0 43.586c-7.7031 0-13.949-6.2461-13.949-13.949s6.2461-13.949 13.949-13.949c7.7031 0 13.949 6.2461 13.949 13.949 0 7.707-6.2461 13.949-13.949 13.949z" fill="#fff"/>
 <path d="m42.871 67.051c0 3.1445-2.5469 5.6914-5.6914 5.6914-3.1445 0-5.6914-2.5469-5.6914-5.6914s2.5469-5.6914 5.6914-5.6914c3.1445 0 5.6914 2.5469 5.6914 5.6914z" fill="#fff"/>
 <path d="m85.68 37.41c-16.371 0-29.641 13.27-29.641 29.641 0 16.367 13.27 29.641 29.641 29.641 16.371 0 29.641-13.27 29.641-29.641 0-16.371-13.27-29.641-29.641-29.641zm0 43.586c-7.7031 0-13.949-6.2461-13.949-13.949s6.2461-13.949 13.949-13.949c7.7031 0 13.949 6.2461 13.949 13.949 0 7.707-6.2461 13.949-13.949 13.949z" fill="#fff"/>
 <path d="m91.371 67.051c0 3.1445-2.5469 5.6914-5.6914 5.6914-3.1445 0-5.6914-2.5469-5.6914-5.6914s2.5469-5.6914 5.6914-5.6914c3.1445 0 5.6914 2.5469 5.6914 5.6914z" fill="#fff"/>
 <path d="m15.363 51.82-9.1016-22.184 22.184 9.1016z" fill="#fff"/>
 <path d="m96.125 40.02 22.188-9.1055-9.1055 22.188z" fill="#fff"/>
 <path d="m70.191 80.938-9.25 22.121-9.2539-22.121z" fill="#fff"/>
</svg>
