<?xml version="1.0" encoding="UTF-8"?>
<svg width="128pt" height="128pt" version="1.1" viewBox="0 0 128 128" xmlns="http://www.w3.org/2000/svg">
 <path d="m84.348 103.59c0.054688 0.18359 0.10156 0.375 0.125 0.56641l0.76172 3.4141 7.7461-7.7461c1.5-1.5 3.9297-1.5 5.4297 0l10.602 10.602c0.46484 0.46484 1.0742 0.69922 1.6719 0.69922 0.60547-0.015625 1.2148-0.24609 1.6719-0.70312l5.1289-5.1289c0.45312-0.45312 0.69141-1.0664 0.69141-1.6719 0.015625-0.59375-0.21875-1.2031-0.68359-1.6719l-10.602-10.602c-1.5-1.5-1.5-3.9297 0-5.4297l7.7461-7.7461-11.453-2.5508-0.16016-0.03125c-0.12109-0.023438-0.24609-0.054688-0.35938-0.089844l-23.379-5.2031c-0.14062-0.03125-0.31641-0.011719-0.48828 0.050781-0.28516 0.10938-0.57422 0.30078-0.82422 0.54688l-0.125 0.12109c-0.19141 0.21875-0.33984 0.46094-0.42188 0.69531-0.050781 0.19922-0.074219 0.37891-0.050781 0.51172l0.875 3.9336c0.066406 0.21094 0.11328 0.42969 0.14453 0.65625l0.49609 2.2266c0.046875 0.14844 0.074219 0.30469 0.10547 0.46484l5.3594 24.09zm-6.3086 6.875c-2.7344 1.3008-5.6094 2.3711-8.5898 3.1992-4.5664 1.2656-9.3516 1.9414-14.254 1.9414-14.727 0-28.055-5.9688-37.699-15.613-5.9297-5.9297-10.469-13.254-13.09-21.441l-0.03125-0.089844-0.023438-0.089843c-1.6055-5.0742-2.4688-10.477-2.4688-16.078 0-5.6055 0.86328-11.012 2.4688-16.086l0.023438-0.089844 0.03125-0.089843c2.6211-8.1836 7.1562-15.504 13.09-21.441 9.6484-9.6484 22.98-15.613 37.699-15.613s28.051 5.9688 37.699 15.613c5.9297 5.9297 10.469 13.254 13.09 21.441l0.03125 0.089843 0.023437 0.089844c1.6055 5.0742 2.4688 10.48 2.4688 16.086 0 1.6484-0.089843 3.375-0.26172 5.1562-0.046875 0.48047-0.10156 0.96094-0.15625 1.4297l14.711 3.2734c0.80469 0.10937 1.5742 0.46875 2.1953 1.0898 1.5 1.5 1.5 3.9297 0 5.4297l-9.9648 9.9648 7.8867 7.8867c1.9453 1.9453 2.9219 4.5234 2.9219 7.1016 0.015625 2.5703-0.96484 5.1445-2.9219 7.1016l-5.1367 5.1367c-1.9531 1.9531-4.5312 2.9336-7.1016 2.9336-2.5781-0.015625-5.1562-0.98438-7.1016-2.9336l-7.8867-7.8867-9.9648 9.9648c-0.51172 0.48828-1.1484 0.85547-1.8906 1.0195-2.0586 0.45312-4.1055-0.85156-4.5586-2.9102l-1.2383-5.5742zm22.543-43.266 0.050781-0.47656c0.12891-1.3711 0.19922-2.8516 0.19922-4.4336 0-3.8594-0.48047-7.6094-1.3867-11.191h-19.516c0.35156 3.6094 0.53906 7.3555 0.53906 11.191l-0.011719 0.44922c0.16406 0.023437 0.32812 0.054687 0.48828 0.09375l19.625 4.3711zm-27.82-1.9531 0.019531-0.55859 0.011719-2.3945c0-3.8633-0.19922-7.6094-0.56641-11.191h-34.066c-0.37109 3.5781-0.56641 7.3281-0.56641 11.191 0 3.8633 0.19531 7.6094 0.56641 11.191h31.66c-0.24609-1.4297-0.10937-2.8516 0.32031-4.1602 0.46094-1.3281 1.1992-2.5664 2.1445-3.5781l0.25-0.27344 0.23047-0.21875zm2.125 31.047c-1.2734 3.3438-2.7305 6.3242-4.3398 8.875l-0.10547 0.17188c2.0234-0.71875 3.9961-1.5859 5.8867-2.5742l-1.4414-6.4648zm-44.434-45.195h-19.516c-0.90625 3.5781-1.3867 7.3281-1.3867 11.191 0 3.8594 0.48047 7.6094 1.3867 11.191h19.508c-0.35156-3.6094-0.53516-7.3555-0.53516-11.191 0-3.8359 0.18359-7.5859 0.53906-11.191zm40.676 30.066h-31.867c1.0234 5.5117 2.4844 10.453 4.2852 14.602 3.2539 7.5156 7.3984 12.164 11.648 12.164 3.0703 0 6.1445-2.5312 8.8711-6.8438 3.0703-4.8594 5.5352-11.762 7.0586-19.926zm-39.645 0h-17.848c2.2812 5.0195 5.4453 9.5547 9.2969 13.398 4.7539 4.7617 10.559 8.4688 17.039 10.766-1.25-1.9453-2.3984-4.1367-3.4414-6.5352-2.1719-5.0039-3.8945-10.988-5.0469-17.629zm0-37.746c1.1445-6.6406 2.875-12.625 5.0469-17.629 1.0391-2.3984 2.1914-4.5859 3.4414-6.5352-6.4766 2.2891-12.281 6.0039-17.039 10.766-3.8516 3.8516-7.0117 8.3789-9.2969 13.398zm38.949-24.16c1.2461 1.9453 2.3984 4.1289 3.4336 6.5312 2.1719 5.0039 3.8945 10.988 5.0469 17.629h17.848c-2.2852-5.0195-5.4453-9.5508-9.2969-13.398-4.7617-4.7539-10.559-8.4688-17.035-10.762zm0.69922 24.16c-1.0234-5.5117-2.4844-10.453-4.2852-14.602-3.2539-7.5156-7.3945-12.164-11.648-12.164-4.25 0-8.3945 4.6484-11.648 12.164-1.7969 4.1445-3.2617 9.0898-4.2852 14.602z" fill="#fff"/>
</svg>
