<?xml version="1.0" encoding="UTF-8"?>
<svg width="128pt" height="128pt" version="1.1" viewBox="0 0 128 128" xmlns="http://www.w3.org/2000/svg">
 <path d="m11.895 26.871c-4.4688 0-8.1289 3.6406-8.1289 8.1055v58.055c0 4.4609 3.6602 8.1016 8.1289 8.1016h104.2c4.4688 0 8.1445-3.6406 8.1445-8.1016v-58.055c0-4.4609-3.6758-8.1055-8.1445-8.1055zm0 3.7656h11.77c-0.87109 8.5195-7.6133 15.262-16.129 16.133v-11.801c0-2.4297 1.9062-4.3398 4.3633-4.3398zm15.551 0h73.113c0.89844 10.566 9.3438 19.016 19.91 19.914v26.895c-10.566 0.89844-19.012 9.3516-19.91 19.914l-73.121 0.003906c-0.90625-10.559-9.3516-19.004-19.91-19.914v-26.902c10.559-0.91016 19.012-9.3555 19.91-19.914zm76.895 0h11.754c2.4609 0 4.3789 1.9102 4.3789 4.3398v11.801c-8.5195-0.87109-15.262-7.6133-16.129-16.133zm-40.34 7.6445c-14.184 0-25.719 11.535-25.719 25.719s11.535 25.719 25.719 25.719 25.719-11.535 25.719-25.719-11.535-25.719-25.719-25.719zm0 3.7656c12.148 0 21.953 9.8047 21.953 21.953s-9.8047 21.953-21.953 21.953-21.953-9.8047-21.953-21.953 9.8047-21.953 21.953-21.953zm2.5469 5.9805c-3.625 0-6.8594 1.9531-9.0742 4.875-1.2539 1.6484-2.2148 3.6211-2.8164 5.7969h-3.1758v-0.003907c-1.0352 0.003907-1.875 0.84375-1.875 1.8789-0.003907 0.5 0.19531 0.98047 0.54688 1.3359 0.35547 0.35547 0.82812 0.55469 1.3281 0.55469h2.5312c-0.039063 0.51172-0.058594 1.0195-0.058594 1.5391 0 0.51953 0.019531 1.0352 0.058594 1.5469h-2.5312c-0.5 0-0.97656 0.19922-1.3281 0.55469-0.35156 0.35547-0.55078 0.83594-0.54688 1.3359 0 1.0352 0.83984 1.8711 1.875 1.875h3.1758c0.60156 2.1758 1.5586 4.1406 2.8164 5.7969 2.2148 2.9219 5.4492 4.8789 9.0742 4.8789 2.6797 0 5.2617-1.1016 7.3516-3.0039 0.76562-0.69922 0.82031-1.8906 0.125-2.6562-0.69922-0.76562-1.8906-0.82422-2.6562-0.125-1.4883 1.3555-3.1484 2.0156-4.8203 2.0156-2.2852 0-4.4141-1.2031-6.0742-3.3906-0.75391-0.99609-1.3906-2.1836-1.8594-3.5156h8.9609c0.5 0 0.98047-0.19531 1.3359-0.54688 0.35156-0.35547 0.55469-0.82812 0.55469-1.3281 0-0.50391-0.19531-0.98438-0.55078-1.3398-0.35547-0.35547-0.83984-0.55469-1.3398-0.55078h-9.7812c-0.046875-0.50391-0.070313-1.0195-0.070313-1.5469 0-0.52344 0.023438-1.0352 0.070313-1.5391h9.7812c0.5 0 0.98438-0.19531 1.3398-0.55078 0.35547-0.35547 0.55078-0.83984 0.55078-1.3398s-0.19922-0.98047-0.55469-1.3281c-0.35547-0.35547-0.83594-0.55078-1.3359-0.55078h-8.9609c0.46875-1.3281 1.1055-2.5195 1.8594-3.5156 1.6602-2.1836 3.7891-3.3906 6.0742-3.3906 1.6758 0 3.3281 0.65625 4.8203 2.0156 0.76562 0.69922 1.9531 0.64062 2.6562-0.125 0.69531-0.76563 0.64062-1.9531-0.125-2.6562-2.0898-1.9062-4.6719-3-7.3516-3zm-59.016 33.211c8.5195 0.875 15.262 7.6133 16.129 16.129h-11.77c-2.4609 0-4.3633-1.9062-4.3633-4.3359zm112.94 0v11.801c0 2.4297-1.9219 4.3359-4.3789 4.3359h-11.754c0.87109-8.5195 7.6094-15.262 16.129-16.129z" fill="#fff"/>
</svg>
