<?xml version="1.0" encoding="UTF-8"?>
<svg width="128pt" height="128pt" version="1.1" viewBox="0 0 128 128" xmlns="http://www.w3.org/2000/svg">
 <path d="m37.719 23.336-10.629 10.605c-5.5586 5.5586-5.7695 14.422-2.7656 23.527 3.0078 9.1055 9.3086 18.969 18.262 27.922 8.9531 8.9531 18.84 15.277 27.945 18.285 9.1055 3.0078 17.945 2.7695 23.504-2.7891l10.629-10.605c0.60156-0.60156 0.94141-1.418 0.94141-2.2695 0-0.85156-0.33984-1.6641-0.94141-2.2656l-16.961-16.961c-0.60156-0.60547-1.418-0.94141-2.2695-0.94141-0.85156 0-1.668 0.33594-2.2656 0.94141l-10.203 10.227c-0.17188 0.17188-0.47266 0.35938-1.3477 0.37891s-2.2227-0.22266-3.7812-0.82812c-3.1172-1.2109-7.0547-3.8203-10.699-7.4648-3.6484-3.6484-6.2539-7.6055-7.4648-10.723-0.60547-1.5586-0.84766-2.8828-0.82812-3.7578s0.20312-1.1719 0.37891-1.3477l10.203-10.203c0.60547-0.59766 0.94141-1.4141 0.94141-2.2656 0-0.85156-0.33594-1.668-0.94141-2.2695l-17.195-17.195c-1.25-1.2422-3.2656-1.2422-4.5117 0zm2.2695 6.8047 12.66 12.66-7.9375 7.9375c-1.5508 1.5508-2.2227 3.6992-2.2695 5.7383-0.042968 2.043 0.42969 4.0938 1.2539 6.2109 1.6484 4.2422 4.7227 8.7617 8.9062 12.945 4.1797 4.1797 8.6797 7.2344 12.922 8.8828 2.1211 0.82422 4.1953 1.3203 6.2344 1.2773 2.043-0.042969 4.1641-0.71484 5.7148-2.2695l7.9609-7.9375 12.426 12.426-8.3398 8.3633c-3.1484 3.1484-9.1289 3.8242-16.984 1.2266-7.8555-2.5938-17.078-8.3828-25.418-16.723-8.3398-8.3398-14.129-17.559-16.723-25.418-2.5938-7.8555-1.918-13.836 1.2266-16.984z" fill="#fff" fill-rule="evenodd"/>
</svg>
